<svg xmlns="http://www.w3.org/2000/svg" width="1368" height="24" fill="none" viewBox="0 0 1368 24"><path stroke="#fff" stroke-width="2" d="M11.64 4.07q.36-.09.72 0c.22.05.45.2 1.33.8l3.95 2.69c1.08.73 1.44.99 1.7 1.3a3 3 0 0 1 .53 1.03c.12.39.13.83.13 2.13v4.31c0 .8 0 1.33-.03 1.75-.03.4-.09.62-.16.77a2 2 0 0 1-.96.96c-.15.07-.36.13-.77.16a26 26 0 0 1-2.75 0l-.03-.01h-.01a.5.5 0 0 1-.24-.25l-.01-.04-.03-.17-.01-.83V16.6q0-.4-.02-.74a2 2 0 0 0-.11-.57l-.09-.2-.07-.14a2 2 0 0 0-.8-.73 2 2 0 0 0-.77-.2Q12.8 14 12.4 14h-.8q-.4 0-.74.02-.36.01-.77.2a2 2 0 0 0-.87.87c-.14.27-.18.54-.2.77Q9 16.2 9 16.6v2.07a13 13 0 0 1-.04 1.03v.01a.5.5 0 0 1-.25.24l-.04.01-.17.03-.83.01c-.8 0-1.33 0-1.75-.03-.4-.03-.62-.09-.77-.16a2 2 0 0 1-.96-.96 2 2 0 0 1-.16-.77A26 26 0 0 1 4 16.33v-4.3c0-1.3.01-1.75.13-2.14a3 3 0 0 1 .54-1.03c.25-.31.61-.57 1.69-1.3l3.95-2.7c.88-.6 1.11-.74 1.33-.8ZM32 3h4.34a3 3 0 0 1 2.12.88l3.66 3.66A3 3 0 0 1 43 9.66V18a3 3 0 0 1-3 3h-8a3 3 0 0 1-3-3V6a3 3 0 0 1 3-3Z"/><path stroke="#fff" stroke-width="2" d="M37 3v2.8c0 1.12 0 1.68.22 2.1q.3.58.87.88c.43.22.99.22 2.11.22H43"/><path fill="#fff" d="M61 3c2.8 0 4.2 0 5.27.54a5 5 0 0 1 2.19 2.19C69 6.8 69 8.2 69 11v2c0 2.8 0 4.2-.54 5.27l-.1.17a5 5 0 0 1-2.1 2.02l-.2.1c-.76.32-1.72.4-3.2.43L61 21h-3.85c-1.5-.03-2.45-.12-3.22-.45l-.2-.1a5 5 0 0 1-2.19-2.18c-.4-.8-.5-1.79-.53-3.42L51 13v-2c0-2.63 0-4.02.45-5.07l.1-.2a5 5 0 0 1 2-2.1l.18-.09C54.8 3 56.2 3 59 3zm2.49 8.94q-.12.1-.41.4L60.2 15.2c-.35.35-.7.7-1.1.9a2.5 2.5 0 0 1-2.22 0c-.4-.2-.75-.55-1.1-.9l-.28-.28h-.01q-.09.07-.3.28l-1.95 1.96.08.2a3 3 0 0 0 1.3 1.3c.21.1.54.21 1.25.27.73.06 1.69.06 3.12.06h2c1.43 0 2.39 0 3.12-.06a3 3 0 0 0 1.24-.27 3 3 0 0 0 1.31-1.3c.1-.21.21-.54.27-1.25l.04-.73-3.06-3.05-.41-.4zM59 5c-1.43 0-2.39 0-3.12.06a3 3 0 0 0-1.24.27 3 3 0 0 0-1.31 1.3c-.1.21-.21.54-.27 1.25C53 8.6 53 9.57 53 11v3.58l.8-.79c.2-.21.48-.5.81-.67a2 2 0 0 1 1.78 0c.33.17.6.46.82.67l.57.54q.22.1.44 0l.13-.1.44-.44 2.87-2.87q.28-.29.54-.5c.17-.15.4-.31.68-.4a2 2 0 0 1 1.09-.05l.15.04.2.08q.3.15.48.32.25.22.54.51L67 12.6V11c0-1.43 0-2.39-.06-3.12a3 3 0 0 0-.27-1.24 3 3 0 0 0-1.3-1.31c-.21-.1-.54-.21-1.25-.27C63.4 5 62.43 5 61 5zm-2 2a2 2 0 1 1 0 4 2 2 0 0 1 0-4"/><path stroke="#fff" stroke-linecap="round" stroke-linejoin="round" stroke-width="2" d="m84 3-7 7m7-7 7 7m-7-7v18M108 4v16m8-8h-16"/><circle cx="132" cy="12" r="3" stroke="#fff" stroke-width="2"/><path stroke="#fff" stroke-linecap="round" stroke-width="2" d="M132 19v2M127.05 16.95l-1.41 1.41M125 12h-2M127.06 7.05l-1.42-1.42M132 3v2M138.37 5.63l-1.42 1.42M141 12h-2M138.37 18.36l-1.41-1.41"/><path stroke="#fff" stroke-linecap="round" stroke-linejoin="round" stroke-width="2" d="M165 9.5v7a2.5 2.5 0 0 1-2.5 2.5h-13a2.5 2.5 0 0 1-2.5-2.5v-7a2.5 2.5 0 0 1 2.5-2.5h2.5l.36-.81A2 2 0 0 1 154.2 5h3.62a2 2 0 0 1 1.83 1.19L160 7h2.5a2.5 2.5 0 0 1 2.5 2.5"/><path stroke="#fff" stroke-width="2" d="M156 9.5a3 3 0 1 1 0 6 3 3 0 0 1 0-6Z"/><path stroke="#fff" stroke-linecap="round" stroke-linejoin="round" stroke-width="2" d="M151 6h-1v.5h1z"/><rect width="13" height="12" x="171" y="6" stroke="#fff" stroke-width="2" rx="3"/><path stroke="#fff" stroke-linecap="round" stroke-linejoin="round" stroke-width="2" d="M186.44 8.97a1.5 1.5 0 0 1 2.56 1.07v3.92c0 1.34-1.62 2.01-2.56 1.07l-1.61-1.62a2 2 0 0 1 0-2.82zM197 17.5v.5a3 3 0 0 0 3 3h8a3 3 0 0 0 3-3v-.5M204 17l-5-5m5 5 5-5m-5 5V3"/><path stroke="#fff" stroke-width="2" d="M225 17.68V7.12c0-.7 0-1.04.12-1.32q.16-.38.5-.63c.26-.18.6-.25 1.28-.4l7.2-1.52c1-.2 1.5-.31 1.88-.18q.53.18.81.66c.21.35.21.85.21 1.87v9.04m-12 3.04c0 1.52-.67 2.77-2.3 3.2-1.64.43-3.26-.3-3.63-1.64-.36-1.34.67-2.77 2.3-3.2 1.64-.43 3.26.3 3.63 1.64Zm12-3.04c0 1.52-.66 2.77-2.3 3.2s-3.26-.3-3.62-1.64.66-2.77 2.3-3.2 3.25.3 3.62 1.64Z"/><circle cx="254" cy="10" r="6" stroke="#fff" stroke-width="2"/><path stroke="#fff" stroke-linecap="round" stroke-width="2" d="m244 20 5-5"/><rect width="6" height="6" x="268" y="4" stroke="#fff" stroke-width="2" rx="2"/><rect width="6" height="6" x="278" y="4" stroke="#fff" stroke-width="2" rx="2"/><rect width="6" height="6" x="268" y="14" stroke="#fff" stroke-width="2" rx="2"/><rect width="6" height="6" x="278" y="14" stroke="#fff" stroke-width="2" rx="2"/><path stroke="#fff" stroke-width="2" d="m302 7-1.39-.93c-.6-.4-.9-.6-1.22-.74a4 4 0 0 0-.9-.27c-.35-.06-.7-.06-1.43-.06H295c-1.4 0-2.1 0-2.63.27a2.5 2.5 0 0 0-1.1 1.1C291 6.9 291 7.6 291 9v.5M302 7h3c1.4 0 2.1 0 2.63.27q.73.37 1.1 1.1c.27.53.27 1.23.27 2.63v4c0 1.4 0 2.1-.27 2.64a2.5 2.5 0 0 1-1.1 1.09c-.53.27-1.23.27-2.63.27h-10c-1.4 0-2.1 0-2.63-.27a2.5 2.5 0 0 1-1.1-1.1C291 17.1 291 16.4 291 15V9.5M302 7l-1.67 1.39c-.49.41-.74.62-1.01.76a3 3 0 0 1-.78.29c-.31.06-.63.06-1.28.06H291"/><circle cx="329" cy="17.5" r="3.5" stroke="#fff" stroke-width="2"/><circle cx="329" cy="6.5" r="3.5" stroke="#fff" stroke-width="2"/><circle cx="319" cy="12" r="3.5" stroke="#fff" stroke-width="2"/><rect width="10" height="10" x="347" y="7" stroke="#fff" stroke-width="2" rx="3"/><path stroke="#fff" stroke-linecap="round" stroke-width="2" d="m348 8 8 8M339 12h4"/><path stroke="#fff" stroke-width="2" d="M371.56 3.06a2 2 0 0 1 .88 0c.28.07.57.23 1.54.82l4.2 2.57c.9.55 1.15.71 1.33.92a2 2 0 0 1 .4.7c.08.27.09.58.09 1.62v4.62c0 1.04-.01 1.35-.1 1.61a2 2 0 0 1-.39.71c-.18.2-.44.37-1.33.92l-4.2 2.57c-.97.59-1.26.75-1.54.82a2 2 0 0 1-.88 0 6 6 0 0 1-1.54-.82l-4.2-2.57a6 6 0 0 1-1.33-.92 2 2 0 0 1-.4-.7c-.08-.27-.09-.58-.09-1.62V9.69c0-1.04.01-1.35.1-1.61a2 2 0 0 1 .39-.71c.18-.2.44-.37 1.33-.92l4.2-2.57c.97-.59 1.26-.75 1.54-.82ZM372 13l-8-5m8 5 8-5m-8 5v8"/><path stroke="#fff" stroke-linecap="round" stroke-width="2" d="M398 19a2 2 0 0 1-4 0M401.5 8.5a5.5 5.5 0 1 0-11 0M401.5 8.5v2.69a3 3 0 0 0 .56 1.65c.28.43.43.64.5.8a3 3 0 0 1-2.32 4.34c-.17.02-.43.02-.95.02h-6.58c-.52 0-.78 0-.95-.02a3 3 0 0 1-2.33-4.35 10 10 0 0 1 .62-.95 3 3 0 0 0 .45-1.5V8.5"/><path fill="#fff" d="M422 5V4zm6 6h1zm-2.73 5.03-.55-.84a1 1 0 0 0-.4 1.14zm1.08 2.1.8-.6zm.65.87v1a1 1 0 0 0 .8-1.6zm-.58 0v1zm-4.08-2.01.79-.61a1 1 0 0 0-.85-.39zM422 17v1zm-10-6h-1zm10-6v1a5 5 0 0 1 5 5h2a7 7 0 0 0-7-7zm6 6h-1a5 5 0 0 1-2.28 4.19l.55.84.55.84A7 7 0 0 0 429 11zm-2.73 5.03-.95.3q.4 1.3 1.23 2.4l.8-.6.8-.6a6 6 0 0 1-.92-1.8zm1.08 2.1-.8.6.65.87.8-.6.8-.6-.65-.87zm.65.87v-1h-.58v2h.58zm-.58 0v-1c-1.3 0-2.51-.6-3.3-1.62l-.78.6-.8.62a6.2 6.2 0 0 0 4.88 2.4zm-4.08-2.01-.06-1-.28.01v2l.4-.01zM422 17v-1h-4v2h4zm-4 0v-1a5 5 0 0 1-5-5h-2a7 7 0 0 0 7 7zm-6-6h1a5 5 0 0 1 5-5V4a7 7 0 0 0-7 7zm6-6v1h4V4h-4z"/><path stroke="#fff" stroke-linecap="round" stroke-width="2" d="M444.8 4h-5.07c-.27 0-.4 0-.53.03a1 1 0 0 0-.3.14c-.11.07-.2.18-.38.38l-1.86 2.12h0c-.37.42-.55.64-.56.81q0 .24.19.4c.13.12.41.12.97.12h9.14c.56 0 .84 0 1.05.1a1 1 0 0 1 .44.45c.11.21.11.49.11 1.05v4.8c0 .56 0 .84-.1 1.05a1 1 0 0 1-.45.44c-.21.11-.49.11-1.05.11h-6.67c-.27 0-.4 0-.53.03a1 1 0 0 0-.3.14c-.11.07-.2.18-.38.38l-1.86 2.12c-.37.42-.55.64-.56.81q0 .24.19.4c.13.12.41.12.97.12h7.54c2.52 0 3.78 0 4.74-.5a4.5 4.5 0 0 0 1.97-1.96c.49-.96.49-2.22.49-4.74v-1.6c0-2.52 0-3.78-.49-4.74a4.5 4.5 0 0 0-1.97-1.97C448.58 4 447.32 4 444.8 4Z"/><rect width="16" height="16" x="460" y="4" stroke="#fff" stroke-width="2" rx="4"/><path stroke="#fff" stroke-linecap="round" stroke-width="2" d="m464 13 1.43-1.43c.2-.2.3-.3.34-.42a.5.5 0 0 0 0-.3c-.04-.12-.14-.22-.34-.42L464 9M469 15h3M496.71 10a5 5 0 0 0-1.71.26m1.71-.26a4.5 4.5 0 0 1-.21 9H490a7 7 0 1 1 6.71-9Z"/><path stroke="#fff" stroke-width="2" d="M514.5 4.8c.55-.3.82-.44 1.11-.5a2 2 0 0 1 .78 0c.29.06.56.2 1.11.5l3.8 2.01c.62.33.93.5 1.15.73q.3.32.44.74c.11.3.11.66.11 1.36v4.72c0 .7 0 1.05-.1 1.36q-.15.42-.45.74c-.22.24-.53.4-1.15.73l-3.8 2.01c-.55.3-.82.44-1.11.5a2 2 0 0 1-.78 0c-.29-.06-.56-.2-1.11-.5l-3.8-2.01c-.62-.33-.93-.5-1.15-.73q-.3-.32-.44-.74c-.11-.3-.11-.66-.11-1.36V9.64c0-.7 0-1.05.1-1.36q.15-.42.45-.74c.22-.24.53-.4 1.15-.73z"/><path stroke="#fff" stroke-linecap="round" stroke-width="2" d="M516 9v3"/><circle cx="516" cy="15" r="1" fill="#fff"/><circle cx="540" cy="12" r="9" stroke="#fff" stroke-width="2"/><path stroke="#fff" stroke-linecap="round" stroke-width="2" d="M540 12v4"/><circle cx="540" cy="8" r="1" fill="#fff"/><circle cx="564" cy="12" r="9" stroke="#fff" stroke-width="2"/><path stroke="#fff" stroke-linecap="round" stroke-linejoin="round" stroke-width="2" d="M562 9.34c.16-.45.48-.83.9-1.06a2.1 2.1 0 0 1 2.62.43q.46.56.48 1.3c0 1.99-2 1.49-2 2.99"/><circle cx="564" cy="16" r="1" fill="#fff"/><g clip-path="url(#a)"><path stroke="#fff" stroke-linecap="round" stroke-linejoin="round" stroke-miterlimit="10" stroke-width="2" d="m589.79 6.86-.67 2.64q-.06.24-.04.32.03.1.11.14t.32.04h3.1c1.09 0 1.63 0 1.9.22a1 1 0 0 1 .37.79c0 .35-.34.77-1.03 1.6l-4.84 5.9c-1.3 1.59-1.96 2.39-2.39 2.42a1 1 0 0 1-.92-.46c-.23-.37.02-1.37.52-3.37l.66-2.6q.06-.24.04-.32a.3.3 0 0 0-.11-.14q-.08-.05-.32-.04h-3.15c-1.08 0-1.62 0-1.9-.22a1 1 0 0 1-.37-.8c0-.34.35-.76 1.04-1.6L587 5.46c1.3-1.59 1.96-2.38 2.39-2.41a1 1 0 0 1 .91.46c.23.36-.02 1.36-.51 3.35"/></g><rect width="16" height="12" x="604" y="4" stroke="#fff" stroke-width="2" rx="3"/><path stroke="#fff" stroke-linecap="round" stroke-linejoin="round" stroke-width="2" d="M609 20h6M639.5 10h-7c-1.4 0-2.1 0-2.65.23a3 3 0 0 0-1.62 1.62c-.23.55-.23 1.25-.23 2.65s0 2.1.23 2.65a3 3 0 0 0 1.62 1.62c.55.23 1.25.23 2.65.23h7c1.4 0 2.1 0 2.65-.23a3 3 0 0 0 1.62-1.62c.23-.55.23-1.25.23-2.65s0-2.1-.23-2.65a3 3 0 0 0-1.62-1.62c-.55-.23-1.25-.23-2.65-.23"/><path stroke="#fff" stroke-linecap="round" stroke-linejoin="round" stroke-width="2" d="m640.5 5-10.8 5.18a3 3 0 0 0-1.7 2.7v2.62M632.5 16a1.5 1.5 0 1 0 0-3 1.5 1.5 0 0 0 0 3M638 13h3"/><circle cx="638" cy="16" r="1" fill="#fff"/><circle cx="641" cy="16" r="1" fill="#fff"/><path stroke="#fff" stroke-linecap="round" stroke-linejoin="round" stroke-width="2" d="M653 7h14M657 6V4.25c0-.69.56-1.25 1.25-1.25h3.5c.69 0 1.25.56 1.25 1.25V6M666 8l-.72 9.3c-.1 1.3-.15 1.96-.43 2.45a2.5 2.5 0 0 1-1.08 1c-.51.25-1.17.25-2.47.25h-2.6c-1.3 0-1.96 0-2.47-.25a2.5 2.5 0 0 1-1.08-1c-.28-.49-.33-1.14-.43-2.44L654 8"/><path stroke="#fff" stroke-linecap="round" stroke-width="2" d="m658 12 4 4m-4 0 4-4"/><rect width="11" height="18" x="678.5" y="3" stroke="#fff" stroke-width="2" rx="5.5"/><path stroke="#fff" stroke-linecap="round" stroke-width="2" d="M684 7v2"/><g stroke="#fff" stroke-width="2" clip-path="url(#b)"><path d="M713.32 5.22a7.5 7.5 0 0 1 0 10.6l-4.91 4.92a.55.55 0 0 1-.77 0l-4.92-4.92a7.5 7.5 0 0 1 10.6-10.6Z"/><rect width="6" height="6" x="705.02" y="7.52" rx="3"/></g><circle cx="732" cy="7" r="4" stroke="#fff" stroke-width="2"/><path stroke="#fff" stroke-linecap="round" stroke-width="2" d="M738 21c0-1.86 0-2.8-.3-3.53a4 4 0 0 0-2.17-2.17c-.73-.3-1.67-.3-3.53-.3s-2.8 0-3.53.3a4 4 0 0 0-2.17 2.17c-.3.73-.3 1.67-.3 3.53"/><circle cx="753" cy="7" r="4" stroke="#fff" stroke-width="2"/><path stroke="#fff" stroke-linecap="round" stroke-width="2" d="M761 10a2.5 2.5 0 0 0 0-5M759 21c0-1.86 0-2.8-.3-3.53a4 4 0 0 0-2.17-2.17c-.73-.3-1.67-.3-3.53-.3s-2.8 0-3.53.3a4 4 0 0 0-2.17 2.17c-.3.73-.3 1.67-.3 3.53M761 14q0 0 0 0a4 4 0 0 1 4 4q0 0 0 0v1"/><path stroke="#fff" stroke-linecap="round" stroke-linejoin="round" stroke-width="2" d="M776 9a3 3 0 1 0 0-6 3 3 0 0 0 0 6M776 21a3 3 0 1 0 0-6 3 3 0 0 0 0 6M787 7l-8.5 8.5M778.5 8.5l3 3M787 17l-2-2"/><path stroke="#fff" stroke-linecap="round" stroke-width="2" d="M795 18V7M799 18V9M803 18V5M813 18l-6-13M824 15h-1c-.93 0-1.4 0-1.76-.15a2 2 0 0 1-1.09-1.08c-.15-.37-.15-.84-.15-1.77s0-1.4.15-1.77a2 2 0 0 1 1.09-1.08C821.6 9 822.07 9 823 9h1m0 6V9m0 6v2.74l.01.47a2 2 0 0 0 1.78 1.78l.47.01h.28a2 2 0 0 0 1.63-1.04l1.12-1.75M824 15l5.3 2.2M824 9l8.68-3.62c1.1-.46 1.66-.69 2.11-.6q.62.13.96.64c.25.37.25.98.25 2.18v8.8c0 1.2 0 1.8-.25 2.18a1.5 1.5 0 0 1-.96.64c-.45.09-1-.14-2.11-.6l-3.39-1.41"/><rect width="10" height="10" x="847" y="7" stroke="#fff" stroke-width="2" rx="2"/><path stroke="#fff" stroke-linecap="round" stroke-width="2" d="M847 14h-3M854 17v3M857 10h3M850 7V4M847 10h-3M850 17v3M857 14h3M854 7V4"/><path stroke="#fff" stroke-linecap="round" stroke-linejoin="round" stroke-width="2" d="M876 5v14m0-14 1.79-.6A2.44 2.44 0 0 1 881 6.72V7l.77.26.12.04a3 3 0 0 1 1.07.66l.08.08.25.25a2.4 2.4 0 0 1 0 3.42L883 12m-7-7-1.79-.6A2.44 2.44 0 0 0 871 6.72V7l-.77.26-.12.04a3 3 0 0 0-1.07.66l-.08.08-.25.25a2.4 2.4 0 0 0 0 3.42l.29.29m7 7 1.47.59.26.1a3 3 0 0 0 1.85.04l.18-.04a2.8 2.8 0 0 0 1.95-1.8L882 17m-6 2-1.47.59-.26.1a3 3 0 0 1-1.85.04l-.18-.04a2.8 2.8 0 0 1-1.95-1.8L870 17m12 0 .15-.18c.68-.78 1.01-1.18 1.2-1.62a3 3 0 0 0 .22-1.26c-.02-.48-.2-.97-.57-1.94m-1 5-.05-.15a3 3 0 0 0-1.8-1.8L880 15m3-3-.99-.5a6 6 0 0 0-.76-.34q-.27-.09-.54-.13c-.2-.03-.42-.03-.84-.03H879m-9 6-.15-.18c-.68-.78-1.01-1.18-1.2-1.62a3 3 0 0 1-.22-1.26c.02-.48.2-.97.57-1.94m1 5 .05-.15a3 3 0 0 1 1.8-1.8L872 15m-3-3 .99-.5c.37-.18.56-.28.76-.34q.27-.09.54-.13c.2-.03.42-.03.84-.03h.87"/><path stroke="#fff" stroke-linecap="round" stroke-width="2" d="m895 3 7.36 6.62c.91.83 1.37 1.24 1.54 1.72a2 2 0 0 1 0 1.32c-.17.48-.63.9-1.54 1.72L895 21"/><circle cx="920" cy="6" r="3" stroke="#fff" stroke-width="2"/><circle cx="928" cy="16" r="3" stroke="#fff" stroke-width="2"/><path stroke="#fff" stroke-linecap="round" stroke-linejoin="round" stroke-width="2" d="M920 21V9.5c0 2.17 1 6.5 5 6.5"/><path stroke="#fff" stroke-linejoin="round" stroke-width="2" d="M942.5 18.5c.9.34 2.1.5 3.01.5h5.46c.92 0 1.89-.26 2.53-.5m-11 0c-.6-.7-1.34-2.51 0-4.5.84-1.24 3.2-1.5 5.5-1.5 2.31 0 4.66.25 5.5 1.5 1.34 1.99.34 3.8 0 4.5m-11 0c-1.98-.73-2.5-2.5-2.5-5.5 0-1.51.6-5.2 3-8 0 0 1.49 3.5 2 3s5.5-.5 6 0 2-3 2-3c2.4 2.8 3 6.49 3 8 0 3-.52 4.77-2.5 5.5"/><circle cx="946" cy="16" r="1" fill="#fff"/><circle cx="950" cy="16" r="1" fill="#fff"/><rect width="4" height="6" x="964" y="14" stroke="#fff" stroke-width="2" rx="2"/><rect width="4" height="6" x="976" y="14" stroke="#fff" stroke-width="2" rx="2"/><path stroke="#fff" stroke-linecap="round" stroke-width="2" d="M964 17v-5.12A7.94 7.94 0 0 1 972 4c4.42 0 8 3.53 8 7.88V17"/><rect width="16" height="16" x="988" y="4" stroke="#fff" stroke-width="2" rx="4"/><circle cx="1000.5" cy="7.5" r="1" fill="#fff"/><circle cx="996" cy="12" r="3" stroke="#fff" stroke-width="2"/><path stroke="#fff" stroke-linecap="round" stroke-linejoin="round" stroke-width="2" d="M1029 5q-1.18.8-2.57 1.2a3.81 3.81 0 0 0-5.8.33 3.4 3.4 0 0 0-.63 2.01v.78a9 9 0 0 1-4.15-.88 8.6 8.6 0 0 1-3.21-2.65s-3.28 7.02 4.09 10.14a10 10 0 0 1-5.73 1.56c7.36 3.9 16.36 0 16.36-8.97q0-.33-.06-.65a6 6 0 0 0 1.7-2.86"/><path stroke="#fff" stroke-miterlimit="10" stroke-width="2" d="M1052 17.06q0 .45-.2.88t-.55.81q-.58.65-1.31.95-.72.3-1.56.3-1.23 0-2.61-.58-1.39-.6-2.76-1.59a24 24 0 0 1-2.63-2.24q-1.24-1.24-2.23-2.61a14 14 0 0 1-1.57-2.73 7 7 0 0 1-.58-2.62q0-.81.29-1.54.29-.74.92-1.34.77-.75 1.67-.75.33 0 .65.14.31.14.53.45l1.86 2.62q.22.3.32.56.1.25.11.49 0 .29-.16.56-.16.29-.45.57l-.61.63a.4.4 0 0 0-.13.32l.02.19.07.16q.21.39.74 1.02.54.63 1.16 1.27.65.63 1.28 1.17t1.03.74l.15.06q.08.04.2.03.2 0 .32-.13l.61-.6q.3-.3.58-.45.28-.17.57-.17.22 0 .49.1.26.12.56.32l2.65 1.88q.31.21.44.51t.13.62Z"/><rect width="18" height="12" x="1059" y="6" stroke="#fff" stroke-width="2" rx="4"/><path stroke="#fff" stroke-linecap="round" stroke-width="2" d="m1062.5 6.5 3.24 3.24c.79.79 1.19 1.19 1.64 1.33q.62.2 1.24 0c.45-.14.85-.54 1.64-1.33l3.24-3.24"/><circle cx="1090" cy="12" r="1" fill="#fff"/><circle cx="1094" cy="12" r="1" fill="#fff"/><path stroke="#fff" stroke-linecap="round" stroke-linejoin="round" stroke-width="2" d="M1092 6.79c-.6 0-1.2.09-1.71.26l-.34-1.05c-1.37 0-2.05 0-4.1 1.05-2.05 1.06-3.24 7.82-2.74 8.84.5 1.03 3.65 1.88 4.79 2.11l.68-.7s-.93-.5-.93-1.2c1.37.7 3.8.7 4.35.7s2.97 0 4.34-.7c0 .7-.92 1.2-.92 1.2l.68.7c1.14-.23 4.29-1.08 4.79-2.1.5-1.03-.69-7.8-2.74-8.85s-2.73-1.05-4.1-1.05l-.34 1.05a5 5 0 0 0-1.71-.26"/><path stroke="#fff" stroke-linejoin="round" stroke-width="2" d="M1115.24 15.17c1.19.95 4.46 2.9 4.64 3.03.23.17 1.52.95 2.3.78.79-.18.88-1.17.88-1.17l1.15-6.8c.37-2.3.74-4.41.78-5.02.14-1.47-1.52-.87-1.52-.87s-3.59 1.39-4.64 1.82l-10.73 4.16c-1.88.69-.78 1.34-.78 1.34s1.61.52 2.99.9a4 4 0 0 0 1.19.17m0 0c.61-.02.93-.2.93-.2L1120 9.5c-1.2 1.13-3.06 2.85-4.72 4.28L1113 17.5m-1.5-4 1.5 4m0 0 2.5-2"/><path stroke="#fff" stroke-linecap="round" stroke-width="2" d="M1138 14v-2.61m0-1.74v1.74m0-1.74c0-2.28-.77-4.52-3.5-4.65a3.6 3.6 0 0 0-3.17 1.76m6.67 2.89c-1.63-1.09-3.54-1.07-5.44-.15-1.56.75-1.56 2.25-1.56 2.76 0 1.1 1.39 1.74 2.33 1.74 2.07 0 4.67-1.43 4.67-2.61M1144.8 19c-.49-2.25-1.32-7.2-.74-9m-3.06 1c1.96.25 6.19-.15 7.36-.75m-.61 2.75-.27.57m0 0c-1.99 3.64-5.59 6.34-6.36 4.18-1-2.8 4.62-5.1 6.36-4.18Zm0 0c1 .54 2.52 2.43.52 4.43"/><path stroke="#fff" stroke-linejoin="round" stroke-width="2" d="M1171.74 18h-15.48c-.56 0-.84 0-.98-.11a.5.5 0 0 1-.18-.4c.01-.18.19-.4.56-.82l1.86-2.12c.18-.2.27-.3.37-.38q.15-.09.31-.14c.13-.03.26-.03.53-.03h10.54c.27 0 .4 0 .53.03q.16.05.31.14c.1.07.19.18.37.38l1.86 2.12c.37.42.55.64.56.81q0 .24-.18.4c-.14.12-.42.12-.98.12ZM1170 7.6v4.8c0 .56 0 .84-.11 1.05a1 1 0 0 1-.44.44c-.21.11-.49.11-1.05.11h-8.8c-.56 0-.84 0-1.05-.1a1 1 0 0 1-.44-.45c-.11-.21-.11-.49-.11-1.05V7.6c0-.56 0-.84.11-1.05a1 1 0 0 1 .44-.44c.21-.11.49-.11 1.05-.11h8.8c.56 0 .84 0 1.05.1q.3.16.44.45c.11.21.11.49.11 1.05Z"/><path stroke="#fff" stroke-width="2" d="m1186.2 16.4-.08.12a2.8 2.8 0 0 1-2.74 1.21l-1-.15c-1.08-.16-2.12-.7-2.6-1.7a8 8 0 0 1-.76-4.03c.1-1.89 1.79-3.04 3.48-3.88 1.95-.97 3.32-.97 5.44-.97h.13c2.09 0 3.45 0 5.39.97 1.69.84 3.39 1.98 3.52 3.87a8 8 0 0 1-.72 4.02c-.49 1-1.54 1.56-2.65 1.72l-1.02.16a2.8 2.8 0 0 1-2.74-1.21l-.08-.13a2.14 2.14 0 0 0-3.57 0Z"/><path stroke="#fff" stroke-linecap="round" stroke-width="2" d="M1204 9.88V6c0-1.24 0-1.86.34-1.97.34-.12.72.38 1.46 1.37L1207 7l1.2 1.6c.74 1 1.12 1.49 1.46 1.37s.34-.73.34-1.97V4.12M1214 4v3c0 .93 0 1.4.15 1.77q.33.75 1.08 1.08c.37.15.84.15 1.77.15s1.4 0 1.77-.15c.49-.2.87-.6 1.08-1.08.15-.37.15-.84.15-1.77V4M1204 18.8v-3.6c0-.66.54-1.2 1.2-1.2h1.8a3 3 0 1 1 0 6h-1.8a1.2 1.2 0 0 1-1.2-1.2ZM1214 14v4c0 .94 0 1.41.29 1.7.3.3.77.3 1.71.3h4"/><path stroke="#fff" stroke-linejoin="round" stroke-width="2" d="M1234 8.33v10.34c0 .3 0 .46-.03.59-.1.34-.37.61-.71.7-.13.04-.28.04-.59.04-1.09 0-1.63 0-2.08-.12a3.5 3.5 0 0 1-2.47-2.47c-.12-.45-.12-1-.12-2.08v-3.66c0-1.09 0-1.63.12-2.08a3.5 3.5 0 0 1 2.47-2.47c.45-.12.99-.12 2.08-.12.31 0 .46 0 .59.03.34.1.61.37.71.71.03.13.03.28.03.6ZM1238 5.33v10.34c0 .3 0 .46.03.59.1.34.37.61.71.7.13.04.28.04.59.04 1.09 0 1.63 0 2.08-.12a3.5 3.5 0 0 0 2.47-2.47c.12-.45.12-1 .12-2.08V8.67c0-1.09 0-1.63-.12-2.08a3.5 3.5 0 0 0-2.47-2.47c-.45-.12-.99-.12-2.08-.12-.31 0-.46 0-.59.03-.34.1-.61.37-.71.71-.03.13-.03.28-.03.6Z"/><path stroke="#fff" stroke-width="2" d="M1259.1 3h1.8c1 0 1.68 0 2.22.04.52.05.8.13 1.01.23q.73.37 1.1 1.1c.1.2.18.5.23 1.01.04.54.04 1.22.04 2.22v8.8c0 1 0 1.68-.04 2.22-.05.52-.13.8-.23 1.01q-.37.73-1.1 1.1c-.21.1-.49.18-1.01.23-.54.04-1.22.04-2.22.04h-1.8c-1 0-1.68 0-2.22-.04-.52-.05-.8-.13-1.01-.23a2.5 2.5 0 0 1-1.1-1.1c-.1-.2-.18-.5-.23-1.01-.04-.54-.04-1.22-.04-2.22V7.6c0-1 0-1.68.04-2.22.05-.52.13-.8.23-1.01q.37-.73 1.1-1.1c.21-.1.49-.18 1.01-.23.54-.04 1.22-.04 2.22-.04Z"/><path stroke="#fff" stroke-linecap="round" stroke-linejoin="round" stroke-width="2" d="M1259 6h2"/><rect width="14" height="14" x="1277" y="6" stroke="#fff" stroke-width="2" rx="3"/><path stroke="#fff" stroke-linecap="round" stroke-linejoin="round" stroke-width="2" d="M1281 4v4M1287 4v4M1307.15 15.21q.3-.15.56-.36l1.44-1.2a31 31 0 0 0 6.63-8.44c.21-.4.13-.77-.1-1-.21-.21-.58-.28-.99-.09a31 31 0 0 0-8.44 6.65l-1.19 1.43q-.24.28-.39.6"/><path stroke="#fff" stroke-linecap="round" stroke-linejoin="round" stroke-width="2" d="M1309.94 12.82c.19-1.75-1.07-3-2.82-2.81M1306.69 16.43c0 .87-.33 1.7-.95 2.34q-.75.74-1.93.92l-1.95.21a1.68 1.68 0 0 1-1.85-1.86l.22-1.95a3.23 3.23 0 0 1 3.17-2.88h.48c.67.1 1.33.4 1.87.95a3.1 3.1 0 0 1 .94 2.27M1330.5 14.5l3-5M1326.5 8l-2.64 2.64c-.48.48-.72.72-.8.99q-.12.37 0 .74c.08.27.32.51.8.99l2.64 2.64M1337.5 8l2.64 2.64c.48.48.72.72.8.99q.12.37 0 .74c-.08.27-.32.51-.8.99L1337.5 16M1356 21V3m5 5a2 2 0 0 0-2-2h-5.61c-.36 0-.54 0-.69.02a2 2 0 0 0-1.68 1.68c-.02.15-.02.33-.02.69l.01.48a2 2 0 0 0 1.04 1.54l.45.19 7 2.8c.23.1.35.14.45.2a2 2 0 0 1 1.04 1.53l.01.48c0 .36 0 .54-.02.7a2 2 0 0 1-1.68 1.67c-.15.02-.33.02-.69.02H1353a2 2 0 0 1-2-2"/><defs><clipPath id="a"><rect width="24" height="24" x="576" fill="#fff" rx="3"/></clipPath><clipPath id="b"><rect width="24" height="24" x="696" fill="#fff" rx="3"/></clipPath></defs></svg>